<?xml version="1.0" encoding="utf-8"?>
<!-- Generator: Adobe Illustrator 18.1.1, SVG Export Plug-In . SVG Version: 6.00 Build 0)  -->
<svg version="1.1" id="Layer_1" xmlns="http://www.w3.org/2000/svg" xmlns:xlink="http://www.w3.org/1999/xlink" x="0px" y="0px"
	 viewBox="0 0 1200 628" enable-background="new 0 0 1200 628" xml:space="preserve">
<circle fill="#FFFFFF" stroke="#A3CCB2" stroke-width="8" stroke-miterlimit="10" cx="1070.1" cy="263.4" r="103.1"/>
<circle fill="#FFFFFF" stroke="#A3CCB2" stroke-width="8" stroke-miterlimit="10" cx="993.8" cy="185" r="34.2"/>
<circle fill="#FFFFFF" stroke="#A3CCB2" stroke-width="8" stroke-miterlimit="10" cx="761.4" cy="263.3" r="103.1"/>
<circle fill="#FFFFFF" stroke="#A3CCB2" stroke-width="8" stroke-miterlimit="10" cx="685.1" cy="184.8" r="34.2"/>
<circle fill="#FFFFFF" stroke="#A3CCB2" stroke-width="8" stroke-miterlimit="10" cx="452.5" cy="263.8" r="103.1"/>
<circle fill="#FFFFFF" stroke="#A3CCB2" stroke-width="8" stroke-miterlimit="10" cx="376.2" cy="185.4" r="34.2"/>
<circle fill="#FFFFFF" stroke="#A3CCB2" stroke-width="8" stroke-miterlimit="10" cx="135.1" cy="263" r="103.1"/>
<g>
	<polyline fill="#D0D8E3" points="154.3,225.7 207.9,225.7 207.9,328.5 66.5,328.5 66.5,225.7 120.1,225.7 	"/>
	<path fill="#6EC098" d="M154.3,235.6h-34.2v-23.7c0-8,7.3-15.3,17.1-15.3c9.8,0,17.1,7.4,17.1,15.3V235.6z"/>
	<line fill="none" stroke="#FFFFFF" stroke-width="2" stroke-miterlimit="10" x1="66.5" y1="250.1" x2="207.9" y2="250.1"/>
	<rect x="161.3" y="272.5" fill="#6EC098" width="32.1" height="6.7"/>
	<rect x="161.3" y="286.6" fill="#6EC098" width="32.1" height="6.7"/>
	<rect x="161.5" y="301.7" fill="#6EC098" width="32.1" height="6.7"/>
	<circle fill="#FFFFFF" cx="136.7" cy="217.6" r="9"/>
	<g>
		<g id="Shirt_2_">
			<g>
				<path fill="#70BE99" d="M137.9,301.1c-1.7-1.7-16.3-9-16.3-9h-18.1c0,0-14.6,7.4-16.3,9c-3.4,3.4-3.6,14.5-3.6,14.5h57.9
					C141.5,315.6,141.3,304.5,137.9,301.1z"/>
			</g>
		</g>
		<g id="Collar_2_">
			<g>
				<polygon fill="#EAEAEA" points="119.7,290.2 105.3,290.2 103.5,292 105.3,301.1 112.5,293.9 119.7,301.1 121.5,292 				"/>
			</g>
		</g>
		<g id="Tie_3_">
			<g>
				<path fill="#E0B853" d="M116.4,297.5c-1.8-1.8-3.6-3.6-3.6-3.6s-1.8,1.8-3.6,3.6c0,1.8,1.8,1.8,1.8,1.8l-1.8,16.3h7.2l-1.8-16.3
					C114.6,299.3,116.4,299.3,116.4,297.5z"/>
			</g>
		</g>
		<g id="Neck_2_">
			<g>
				<path fill="#DBB69B" d="M117.9,284.8h-10.8l-1.8,5.4c0,1,4.4,3.6,5.4,3.6h3.6c1,0,5.4-2.6,5.4-3.6L117.9,284.8z"/>
			</g>
		</g>
		<g id="Head_2_">
			<g>
				<path fill="#F6CCAD" d="M112.5,259.5c-7,0-12.7,3.6-12.7,10.8c0,5.4,1.8,9,3.6,12.7c1.8,3.6,5.5,7.2,9,7.2s7.2-3.6,9-7.2
					c1.8-3.6,3.6-7.2,3.6-12.7C125.2,263.1,119.5,259.5,112.5,259.5z"/>
			</g>
		</g>
		<g id="Hair_2_">
			<g>
				<path fill="#BA8544" d="M112.5,257.7c-4.2,0-9,1.5-9,3.6c-2.7,0-3.6,6-3.6,10.8c0,0.8,0.1,1.7,0.2,2.5c0.5-2.4,1.9-6.2,5.2-6.2
					c3.1,0,1.9,0,7.2,0c2.7,0,7.2-1.3,7.2-3.6c2.3,0,5.4,3.3,5.4,7.2C125.2,265,124,257.7,112.5,257.7z"/>
			</g>
		</g>
	</g>
</g>
<g>
	<g>
		<g id="Shirt_3_">
			<g>
				<path fill="#70BE99" d="M477.1,275.4c-1.7-1.7-16.3-9-16.3-9h-18.1c0,0-14.6,7.4-16.3,9c-3.4,3.4-3.6,14.5-3.6,14.5h57.9
					C480.7,289.9,480.5,278.8,477.1,275.4z"/>
			</g>
		</g>
		<g id="Collar_3_">
			<g>
				<polygon fill="#EAEAEA" points="459,264.6 444.5,264.6 442.7,266.4 444.5,275.4 451.7,268.2 459,275.4 460.8,266.4 				"/>
			</g>
		</g>
		<g id="Tie_2_">
			<g>
				<path fill="#E0B853" d="M455.6,271.8c-1.8-1.8-3.6-3.6-3.6-3.6s-1.8,1.8-3.6,3.6c0,1.8,1.8,1.8,1.8,1.8l-1.8,16.3h7.2l-1.8-16.3
					C453.8,273.6,455.6,273.6,455.6,271.8z"/>
			</g>
		</g>
		<g id="Neck_5_">
			<g>
				<path fill="#DBB69B" d="M457.2,259.2h-10.8l-1.8,5.4c0,1,4.4,3.6,5.4,3.6h3.6c1,0,5.4-2.6,5.4-3.6L457.2,259.2z"/>
			</g>
		</g>
		<g id="Head_6_">
			<g>
				<path fill="#F6CCAD" d="M451.7,233.8c-7,0-12.7,3.6-12.7,10.8c0,5.4,1.8,9,3.6,12.7c1.8,3.6,5.5,7.2,9,7.2s7.2-3.6,9-7.2
					c1.8-3.6,3.6-7.2,3.6-12.7C464.5,237.4,458.8,233.8,451.7,233.8z"/>
			</g>
		</g>
		<g id="Hair_5_">
			<g>
				<path fill="#BA8544" d="M451.7,232c-4.2,0-9,1.5-9,3.6c-2.7,0-3.6,6-3.6,10.8c0,0.8,0.1,1.7,0.2,2.5c0.5-2.4,1.9-6.2,5.2-6.2
					c3.1,0,1.9,0,7.2,0c2.7,0,7.2-1.3,7.2-3.6c2.3,0,5.4,3.3,5.4,7.2C464.5,239.3,463.3,232,451.7,232z"/>
			</g>
		</g>
	</g>
	<path fill="#70BE99" d="M432.9,296.5l-28.3,28.3c-3.5,3.5-9.2,3.5-12.7,0c-3.5-3.5-3.5-9.2,0-12.7l28.3-28.3
		C423.3,288.8,427.7,293.2,432.9,296.5z"/>
	<path opacity="0.25" fill="#FFFFFF" enable-background="new    " d="M425.7,290.7l-34,34c-3.4-3.5-3.4-9.2,0.1-12.7l28.4-28.4
		C421.7,286.2,423.5,288.6,425.7,290.7z"/>
	<path fill="#D0D8E3" d="M452.9,225.9c21,0,38,17,38,38c0,21-17,38-38,38c-21.1,0-38-17.2-38-38
		C414.9,242.9,431.9,225.9,452.9,225.9 M452.9,220.7c-23.8,0-43.3,19.4-43.3,43.3s19.4,43.3,43.3,43.3s43.3-19.4,43.3-43.3
		C496.1,240.1,476.8,220.7,452.9,220.7z"/>
	<path fill="#FFFFFF" d="M452.9,225.9c-21,0-38,17-38,38c0,21,17,38,38,38s38-17,38-38C490.9,242.9,473.9,225.9,452.9,225.9z
		 M452.9,294.2c-16.7,0-30.3-13.5-30.3-30.3s13.5-30.3,30.3-30.3c16.7,0,30.3,13.5,30.3,30.3C483.2,280.7,469.7,294.2,452.9,294.2z"
		/>
</g>
<g>
	<g>
		<g>
			<g>
				<path id="SVGID_1_" fill="#75608E" d="M810,269c0,2.4-5.4,4.4-12.1,4.4c-6.7,0-12.1-1.9-12.1-4.4c0-0.9-0.3-3.7,0.1-4
					c1.9-1.6,7.7-0.3,12-0.3c5.4,0,10.4-1.5,11.9,0.2C810.2,265.3,810,268.5,810,269z"/>
			</g>
			<g>
				<defs>
					<path id="SVGID_2_" d="M810,269c0,2.4-5.4,4.4-12.1,4.4c-6.7,0-12.1-1.9-12.1-4.4c0-0.9-0.3-3.7,0.1-4c1.9-1.6,7.7-0.3,12-0.3
						c5.4,0,10.4-1.5,11.9,0.2C810.2,265.3,810,268.5,810,269z"/>
				</defs>
				<clipPath id="SVGID_4_">
					<use xlink:href="#SVGID_2_"  overflow="visible"/>
				</clipPath>
				<g clip-path="url(#SVGID_4_)">
					<rect x="786.8" y="262.8" fill="#75608E" width="0.7" height="11.4"/>
				</g>
			</g>
			<g>
				<defs>
					<path id="SVGID_6_" d="M810,269c0,2.4-5.4,4.4-12.1,4.4c-6.7,0-12.1-1.9-12.1-4.4c0-0.9-0.3-3.7,0.1-4c1.9-1.6,7.7-0.3,12-0.3
						c5.4,0,10.4-1.5,11.9,0.2C810.2,265.3,810,268.5,810,269z"/>
				</defs>
				<clipPath id="SVGID_8_">
					<use xlink:href="#SVGID_6_"  overflow="visible"/>
				</clipPath>
				<g clip-path="url(#SVGID_8_)">
					<rect x="788.8" y="267.5" fill="#75608E" width="3.3" height="8.7"/>
				</g>
			</g>
			<g>
				<defs>
					<path id="SVGID_9_" d="M810,269c0,2.4-5.4,4.4-12.1,4.4c-6.7,0-12.1-1.9-12.1-4.4c0-0.9-0.3-3.7,0.1-4c1.9-1.6,7.7-0.3,12-0.3
						c5.4,0,10.4-1.5,11.9,0.2C810.2,265.3,810,268.5,810,269z"/>
				</defs>
				<clipPath id="SVGID_10_">
					<use xlink:href="#SVGID_9_"  overflow="visible"/>
				</clipPath>
				<g clip-path="url(#SVGID_10_)">
					<rect x="807.6" y="262.8" fill="#75608E" width="1.3" height="11.4"/>
				</g>
			</g>
			<g>
				<defs>
					<path id="SVGID_11_" d="M810,269c0,2.4-5.4,4.4-12.1,4.4c-6.7,0-12.1-1.9-12.1-4.4c0-0.9-0.3-3.7,0.1-4c1.9-1.6,7.7-0.3,12-0.3
						c5.4,0,10.4-1.5,11.9,0.2C810.2,265.3,810,268.5,810,269z"/>
				</defs>
				<clipPath id="SVGID_12_">
					<use xlink:href="#SVGID_11_"  overflow="visible"/>
				</clipPath>
				<g clip-path="url(#SVGID_12_)">
					<rect x="793.5" y="266.1" fill="#75608E" width="2" height="10"/>
				</g>
			</g>
		</g>
		<g>
			<ellipse fill="#70BE99" cx="797.9" cy="265.7" rx="12.1" ry="4.4"/>
		</g>
		<g>
			<g>
				<path id="SVGID_3_" fill="#E0B853" d="M808.4,263.7c0,2.4-5.4,4.4-12.1,4.4c-6.7,0-12.1-1.9-12.1-4.4c0-0.9-0.3-3.7,0.1-4
					c1.9-1.6,7.7-0.3,12-0.3c5.4,0,10.4-1.5,11.9,0.2C808.6,260,808.4,263.2,808.4,263.7z"/>
			</g>
			<g>
				<defs>
					<path id="SVGID_13_" d="M808.4,263.7c0,2.4-5.4,4.4-12.1,4.4c-6.7,0-12.1-1.9-12.1-4.4c0-0.9-0.3-3.7,0.1-4
						c1.9-1.6,7.7-0.3,12-0.3c5.4,0,10.4-1.5,11.9,0.2C808.6,260,808.4,263.2,808.4,263.7z"/>
				</defs>
				<clipPath id="SVGID_14_">
					<use xlink:href="#SVGID_13_"  overflow="visible"/>
				</clipPath>
				<g clip-path="url(#SVGID_14_)">
					<rect x="785.5" y="258.1" fill="#D0D8E3" width="0.7" height="10"/>
				</g>
			</g>
			<g>
				<defs>
					<path id="SVGID_15_" d="M808.4,263.7c0,2.4-5.4,4.4-12.1,4.4c-6.7,0-12.1-1.9-12.1-4.4c0-0.9-0.3-3.7,0.1-4
						c1.9-1.6,7.7-0.3,12-0.3c5.4,0,10.4-1.5,11.9,0.2C808.6,260,808.4,263.2,808.4,263.7z"/>
				</defs>
				<clipPath id="SVGID_16_">
					<use xlink:href="#SVGID_15_"  overflow="visible"/>
				</clipPath>
				<g clip-path="url(#SVGID_16_)">
					<rect x="787.5" y="261.4" fill="#D0D8E3" width="2.7" height="10"/>
				</g>
			</g>
			<g>
				<defs>
					<path id="SVGID_17_" d="M808.4,263.7c0,2.4-5.4,4.4-12.1,4.4c-6.7,0-12.1-1.9-12.1-4.4c0-0.9-0.3-3.7,0.1-4
						c1.9-1.6,7.7-0.3,12-0.3c5.4,0,10.4-1.5,11.9,0.2C808.6,260,808.4,263.2,808.4,263.7z"/>
				</defs>
				<clipPath id="SVGID_18_">
					<use xlink:href="#SVGID_17_"  overflow="visible"/>
				</clipPath>
				<g clip-path="url(#SVGID_18_)">
					<rect x="806.2" y="258.1" fill="#D0D8E3" width="0.7" height="10"/>
				</g>
			</g>
			<g>
				<defs>
					<path id="SVGID_19_" d="M808.4,263.7c0,2.4-5.4,4.4-12.1,4.4c-6.7,0-12.1-1.9-12.1-4.4c0-0.9-0.3-3.7,0.1-4
						c1.9-1.6,7.7-0.3,12-0.3c5.4,0,10.4-1.5,11.9,0.2C808.6,260,808.4,263.2,808.4,263.7z"/>
				</defs>
				<clipPath id="SVGID_20_">
					<use xlink:href="#SVGID_19_"  overflow="visible"/>
				</clipPath>
				<g clip-path="url(#SVGID_20_)">
					<rect x="792.2" y="260.8" fill="#D0D8E3" width="1.3" height="10"/>
				</g>
			</g>
		</g>
		<g>
			<ellipse fill="#70BE99" cx="796.2" cy="260.4" rx="12.1" ry="4.4"/>
		</g>
		<g>
			<g>
				<path id="SVGID_5_" fill="#E0B853" d="M810.9,258.8c0,2.4-5.4,4.4-12.1,4.4c-6.7,0-12.1-1.9-12.1-4.4c0-0.9-0.3-3.7,0.1-4
					c1.9-1.6,7.7-0.3,12-0.3c5.4,0,10.4-1.5,11.9,0.2C811.1,255.1,810.9,258.3,810.9,258.8z"/>
			</g>
			<g>
				<defs>
					<path id="SVGID_21_" d="M810.9,258.8c0,2.4-5.4,4.4-12.1,4.4c-6.7,0-12.1-1.9-12.1-4.4c0-0.9-0.3-3.7,0.1-4
						c1.9-1.6,7.7-0.3,12-0.3c5.4,0,10.4-1.5,11.9,0.2C811.1,255.1,810.9,258.3,810.9,258.8z"/>
				</defs>
				<clipPath id="SVGID_22_">
					<use xlink:href="#SVGID_21_"  overflow="visible"/>
				</clipPath>
				<g clip-path="url(#SVGID_22_)">
					<rect x="787.5" y="252.9" fill="#D0D8E3" width="0" height="10"/>
				</g>
			</g>
			<g>
				<defs>
					<path id="SVGID_23_" d="M810.9,258.8c0,2.4-5.4,4.4-12.1,4.4c-6.7,0-12.1-1.9-12.1-4.4c0-0.9-0.3-3.7,0.1-4
						c1.9-1.6,7.7-0.3,12-0.3c5.4,0,10.4-1.5,11.9,0.2C811.1,255.1,810.9,258.3,810.9,258.8z"/>
				</defs>
				<clipPath id="SVGID_24_">
					<use xlink:href="#SVGID_23_"  overflow="visible"/>
				</clipPath>
				<g clip-path="url(#SVGID_24_)">
					<rect x="789.5" y="256.1" fill="#D0D8E3" width="4" height="10"/>
				</g>
			</g>
			<g>
				<defs>
					<path id="SVGID_25_" d="M810.9,258.8c0,2.4-5.4,4.4-12.1,4.4c-6.7,0-12.1-1.9-12.1-4.4c0-0.9-0.3-3.7,0.1-4
						c1.9-1.6,7.7-0.3,12-0.3c5.4,0,10.4-1.5,11.9,0.2C811.1,255.1,810.9,258.3,810.9,258.8z"/>
				</defs>
				<clipPath id="SVGID_26_">
					<use xlink:href="#SVGID_25_"  overflow="visible"/>
				</clipPath>
				<g clip-path="url(#SVGID_26_)">
					<rect x="808.9" y="252.7" fill="#D0D8E3" width="0.7" height="10"/>
				</g>
			</g>
			<g>
				<defs>
					<path id="SVGID_27_" d="M810.9,258.8c0,2.4-5.4,4.4-12.1,4.4c-6.7,0-12.1-1.9-12.1-4.4c0-0.9-0.3-3.7,0.1-4
						c1.9-1.6,7.7-0.3,12-0.3c5.4,0,10.4-1.5,11.9,0.2C811.1,255.1,810.9,258.3,810.9,258.8z"/>
				</defs>
				<clipPath id="SVGID_28_">
					<use xlink:href="#SVGID_27_"  overflow="visible"/>
				</clipPath>
				<g clip-path="url(#SVGID_28_)">
					<rect x="795.5" y="255.4" fill="#D0D8E3" width="1.3" height="10.7"/>
				</g>
			</g>
		</g>
		<g>
			<ellipse fill="#70BE99" cx="798.8" cy="255.5" rx="12.1" ry="4.4"/>
		</g>
		<g>
			<g>
				<path id="SVGID_7_" fill="#E0B853" d="M809.3,254.1c0,2.4-5.4,4.4-12.1,4.4s-12.1-1.9-12.1-4.4c0-0.9-0.3-3.7,0.1-4
					c1.9-1.6,7.7-0.3,12-0.3c5.4,0,10.4-1.5,11.9,0.2C809.5,250.3,809.3,253.6,809.3,254.1z"/>
			</g>
			<g>
				<defs>
					<path id="SVGID_29_" d="M809.3,254.1c0,2.4-5.4,4.4-12.1,4.4s-12.1-1.9-12.1-4.4c0-0.9-0.3-3.7,0.1-4c1.9-1.6,7.7-0.3,12-0.3
						c5.4,0,10.4-1.5,11.9,0.2C809.5,250.3,809.3,253.6,809.3,254.1z"/>
				</defs>
				<clipPath id="SVGID_30_">
					<use xlink:href="#SVGID_29_"  overflow="visible"/>
				</clipPath>
				<g clip-path="url(#SVGID_30_)">
					<rect x="786.2" y="248" fill="#D0D8E3" width="0.7" height="10"/>
				</g>
			</g>
			<g>
				<defs>
					<path id="SVGID_31_" d="M809.3,254.1c0,2.4-5.4,4.4-12.1,4.4s-12.1-1.9-12.1-4.4c0-0.9-0.3-3.7,0.1-4c1.9-1.6,7.7-0.3,12-0.3
						c5.4,0,10.4-1.5,11.9,0.2C809.5,250.3,809.3,253.6,809.3,254.1z"/>
				</defs>
				<clipPath id="SVGID_32_">
					<use xlink:href="#SVGID_31_"  overflow="visible"/>
				</clipPath>
				<g clip-path="url(#SVGID_32_)">
					<rect x="787.5" y="251.4" fill="#D0D8E3" width="4.7" height="10"/>
				</g>
			</g>
			<g>
				<defs>
					<path id="SVGID_33_" d="M809.3,254.1c0,2.4-5.4,4.4-12.1,4.4s-12.1-1.9-12.1-4.4c0-0.9-0.3-3.7,0.1-4c1.9-1.6,7.7-0.3,12-0.3
						c5.4,0,10.4-1.5,11.9,0.2C809.5,250.3,809.3,253.6,809.3,254.1z"/>
				</defs>
				<clipPath id="SVGID_34_">
					<use xlink:href="#SVGID_33_"  overflow="visible"/>
				</clipPath>
				<g clip-path="url(#SVGID_34_)">
					<rect x="806.9" y="248" fill="#D0D8E3" width="2" height="10"/>
				</g>
			</g>
			<g>
				<defs>
					<path id="SVGID_35_" d="M809.3,254.1c0,2.4-5.4,4.4-12.1,4.4s-12.1-1.9-12.1-4.4c0-0.9-0.3-3.7,0.1-4c1.9-1.6,7.7-0.3,12-0.3
						c5.4,0,10.4-1.5,11.9,0.2C809.5,250.3,809.3,253.6,809.3,254.1z"/>
				</defs>
				<clipPath id="SVGID_36_">
					<use xlink:href="#SVGID_35_"  overflow="visible"/>
				</clipPath>
				<g clip-path="url(#SVGID_36_)">
					<rect x="793.5" y="250.7" fill="#D0D8E3" width="2" height="10.7"/>
				</g>
			</g>
		</g>
		<g>
			<ellipse fill="#70BE99" cx="797.1" cy="250.7" rx="12.1" ry="4.4"/>
		</g>
	</g>
	<path fill="#FED09E" d="M837.8,271.4c-0.1-2-1.7-3.7-3.8-3.7c-0.3,0-0.7,0.1-0.9,0.1l0,0l-19.2,5v-0.1c1.3-0.7,2.3-2.2,2.3-3.9
		c0-2.4-2-4.4-4.4-4.4c-0.4,0-0.8,0.1-1.1,0.1c-1.6,0.3-14.3,2.5-21.5,2.1c-7.8-0.5-13.6-2.6-25.3,4.5h-4.6l-0.7,15.6
		c0,0,41.6,2.3,47.5,1.1c4.4-0.9,19.3-6.4,27.1-9.8l0,0l0.2-0.1c0.2-0.1,0.5-0.2,0.7-0.3l2.1-0.9c0.7-0.3,1.1-0.6,1.4-0.9
		c0.2-0.1,0.3-0.3,0.3-0.4c0.5-0.5,0.7-1.3,0.7-2.1C838.5,272.7,838.3,271.9,837.8,271.4z"/>
	<g>
		<g>
			<g>
				<rect x="696" y="260.8" fill="#70BE99" width="59.3" height="35.9"/>
				<rect x="755.4" y="262.5" fill="#E0B853" width="4.2" height="32.5"/>
				<circle fill="#D0D8E3" cx="750.7" cy="293.9" r="1.3"/>
				<circle fill="#D0D8E3" cx="745.6" cy="293.9" r="1.3"/>
			</g>
		</g>
	</g>
</g>
<g>
	<path fill="#70BE99" d="M1043.2,297.7c0-6.7,0-13.2,0-19.9c-5.6,0-11,0-16.6,0c0-17.7,0-35.4,0-53.1c18.8,0,37.6,0,56.4,0
		c0,9.9,0,19.8,0,29.8c14.5,0,28.8,0,43.2,0c0,17.7,0,35.4,0,53.2c-5.5,0-11,0-16.5,0c0,6.6,0,13.2,0,19.9c-0.4-0.3-0.6-0.5-0.9-0.8
		c-6.1-6.1-12.3-12.2-18.3-18.3c-0.5-0.5-1-0.7-1.7-0.7c-6,0-11.9,0-17.8,0c-0.3,0-0.7,0-1.1,0c0-10,0-19.9,0-29.9
		c-1.1,0-2.1,0-3.2,0c-0.3,0-0.5,0.3-0.7,0.5c-7.4,6.3-14.7,12.6-22.1,18.9C1043.6,297.4,1043.4,297.5,1043.2,297.7z M1103,301.1
		c5.6,0,11.1,0,16.5,0c0-13.3,0-26.6,0-39.8c-14.4,0-28.7,0-43.1,0c0,13.3,0,26.5,0,39.8c0.4,0,0.7,0,1.1,0c4.7,0,9.4,0,14.1,0
		c0.4,0,0.9,0.2,1.2,0.5c1.6,1.4,3.1,2.9,4.7,4.4c1.7,1.7,3.5,3.3,5.4,5.1C1103,307.6,1103,304.4,1103,301.1z"/>
	<path fill="#FFFFFF" d="M1103,301.1c0,3.3,0,6.6,0,10c-1.9-1.7-3.7-3.4-5.4-5.1c-1.5-1.5-3.1-2.9-4.7-4.4c-0.3-0.3-0.8-0.5-1.2-0.5
		c-4.7,0-9.4,0-14.1,0c-0.3,0-0.7,0-1.1,0c0-13.3,0-26.6,0-39.8c14.4,0,28.7,0,43.1,0c0,13.3,0,26.5,0,39.8
		C1114.1,301.1,1108.6,301.1,1103,301.1z M1112.9,297.8c-0.5-1.5-0.9-2.9-1.3-4.3c-2.9-9.4-5.8-18.7-8.7-28.1
		c-0.2-0.7-0.5-0.9-1.3-0.9c-1.5,0.1-3.1,0-4.7,0c-1.3,0-2.6,0-4,0c-3.3,11.1-6.6,22.2-10,33.2c2.5,0,4.8,0,7.2,0
		c0.3,0,0.6-0.4,0.7-0.7c0.7-1.7,1.3-3.5,1.8-5.2c0.2-0.5,0.4-0.8,1-0.7c2.8,0.1,5.7,0,8.5,0c0.5,0,0.8,0.1,0.9,0.7
		c0.5,1.7,1,3.5,1.6,5.3c0.1,0.3,0.5,0.6,0.7,0.7C1107.9,297.8,1110.4,297.8,1112.9,297.8z"/>
	<path fill="#FFFFFF" d="M1097.7,271.6c1.6,4.2,3.3,8.4,4.9,12.8c-3.3,0-6.6,0-9.8,0C1094.5,280.1,1096.1,275.8,1097.7,271.6z"/>
	<polygon fill="#E0B853" points="1083.4,281.7 1092.3,289.6 1092.3,284.5 1114,284.5 1114,277.8 1092.3,277.8 1092.3,272.5 	"/>
	<polygon fill="#FFFFFF" points="1069.5,247.8 1060.6,239.9 1060.6,245 1038.8,245 1038.8,251.6 1060.6,251.6 1060.6,257 	"/>
</g>
<path opacity="0.42" fill="#FFFFFF" enable-background="new    " d="M447.9,231c-16.7,0-30.3,13.5-30.3,30.3
	c0,8.3,3.3,15.7,8.7,21.2l42.8-42.8C463.7,234.4,456.2,231,447.9,231z"/>
<rect x="49" y="402.1" fill="none" width="145.2" height="40.8"/>
<text transform="matrix(1 0 0 1 64.4511 416.2334)" fill="#FFFFFF" font-family="'Avenir-Medium'" font-size="18.75">Sign up using </text>
<text transform="matrix(1 0 0 1 53.8711 438.7335)" fill="#FFFFFF" font-family="'Avenir-Medium'" font-size="18.75">the form below.</text>
<circle fill="#FFFFFF" stroke="#A3CCB2" stroke-width="8" stroke-miterlimit="10" cx="67.5" cy="184.6" r="34.2"/>
<text transform="matrix(1 0 0 1 58.5898 196.4874)" fill="#A3CCB2" font-family="'Avenir-Roman'" font-size="32.1429">1</text>
<text transform="matrix(1 0 0 1 367.2954 196.4874)" fill="#A3CCB2" font-family="'Avenir-Roman'" font-size="32.1429">2</text>
<text transform="matrix(1 0 0 1 676.1961 196.4873)" fill="#A3CCB2" font-family="'Avenir-Roman'" font-size="32.1429">3</text>
<text transform="matrix(1 0 0 1 984.9005 196.4873)" fill="#A3CCB2" font-family="'Avenir-Roman'" font-size="32.1429">4</text>
<rect x="383" y="402.1" fill="none" width="145.2" height="82.4"/>
<text transform="matrix(1 0 0 1 397.3115 416.2334)" fill="#FFFFFF" font-family="'Avenir-Medium'" font-size="18.75">We’ll pair you </text>
<text transform="matrix(1 0 0 1 399.9229 438.7335)" fill="#FFFFFF" font-family="'Avenir-Medium'" font-size="18.75">with the best </text>
<text transform="matrix(1 0 0 1 426.9765 461.2334)" fill="#FFFFFF" font-family="'Avenir-Medium'" font-size="18.75">match.</text>
<rect x="682.7" y="402.6" fill="none" width="145.2" height="73.8"/>
<text transform="matrix(1 0 0 1 703.0479 416.7353)" fill="#FFFFFF" font-family="'Avenir-Medium'" font-size="18.75">Agree on an </text>
<text transform="matrix(1 0 0 1 694.4101 439.2354)" fill="#FFFFFF" font-family="'Avenir-Medium'" font-size="18.75">hourly fee and </text>
<text transform="matrix(1 0 0 1 682.8917 461.7353)" fill="#FFFFFF" font-family="'Avenir-Medium'" font-size="18.75">location to meet.</text>
<rect x="996.8" y="402.1" fill="none" width="145.2" height="82.4"/>
<text transform="matrix(1 0 0 1 1008.9757 416.2334)" fill="#FFFFFF" font-family="'Avenir-Medium'" font-size="18.75">Learn to Cook </text>
<text transform="matrix(1 0 0 1 1001.2079 438.7335)" fill="#FFFFFF" font-family="'Avenir-Medium'" font-size="18.75">Something New</text>
</svg>
