<?xml version="1.0" encoding="utf-8"?>
<!-- Generator: Adobe Illustrator 18.1.1, SVG Export Plug-In . SVG Version: 6.00 Build 0)  -->
<svg version="1.1" id="Layer_1" xmlns="http://www.w3.org/2000/svg" xmlns:xlink="http://www.w3.org/1999/xlink" x="0px" y="0px"
	 viewBox="0 0 268 344" enable-background="new 0 0 268 344" xml:space="preserve">
<circle fill="#FFFFFF" stroke="#A3CCB2" stroke-width="8" stroke-miterlimit="10" cx="990.8" cy="854" r="103.1"/>
<circle fill="#FFFFFF" stroke="#A3CCB2" stroke-width="8" stroke-miterlimit="10" cx="914.5" cy="775.5" r="34.2"/>
<g>
	<path fill="#70BE99" d="M963.9,888.2c0-6.7,0-13.2,0-19.9c-5.6,0-11,0-16.6,0c0-17.7,0-35.4,0-53.1c18.8,0,37.6,0,56.4,0
		c0,9.9,0,19.8,0,29.8c14.5,0,28.8,0,43.2,0c0,17.7,0,35.4,0,53.2c-5.5,0-11,0-16.5,0c0,6.6,0,13.2,0,19.9c-0.4-0.3-0.6-0.5-0.9-0.8
		c-6.1-6.1-12.3-12.2-18.3-18.3c-0.5-0.5-1-0.7-1.7-0.7c-6,0-11.9,0-17.8,0c-0.3,0-0.7,0-1.1,0c0-10,0-19.9,0-29.9
		c-1.1,0-2.1,0-3.2,0c-0.3,0-0.5,0.3-0.7,0.5c-7.4,6.3-14.7,12.6-22.1,18.9C964.3,888,964.1,888,963.9,888.2z M1023.7,891.7
		c5.6,0,11.1,0,16.5,0c0-13.3,0-26.6,0-39.8c-14.4,0-28.7,0-43.1,0c0,13.3,0,26.5,0,39.8c0.4,0,0.7,0,1.1,0c4.7,0,9.4,0,14.1,0
		c0.4,0,0.9,0.2,1.2,0.5c1.6,1.4,3.1,2.9,4.7,4.4c1.7,1.7,3.5,3.3,5.4,5.1C1023.7,898.2,1023.7,895,1023.7,891.7z"/>
	<path fill="#FFFFFF" d="M1023.7,891.7c0,3.3,0,6.6,0,10c-1.9-1.7-3.7-3.4-5.4-5.1c-1.5-1.5-3.1-2.9-4.7-4.4
		c-0.3-0.3-0.8-0.5-1.2-0.5c-4.7,0-9.4,0-14.1,0c-0.3,0-0.7,0-1.1,0c0-13.3,0-26.6,0-39.8c14.4,0,28.7,0,43.1,0
		c0,13.3,0,26.5,0,39.8C1034.8,891.7,1029.3,891.7,1023.7,891.7z M1033.6,888.4c-0.5-1.5-0.9-2.9-1.3-4.3
		c-2.9-9.4-5.8-18.7-8.7-28.1c-0.2-0.7-0.5-0.9-1.3-0.9c-1.5,0.1-3.1,0-4.7,0c-1.3,0-2.6,0-4,0c-3.3,11.1-6.6,22.2-10,33.2
		c2.5,0,4.8,0,7.2,0c0.3,0,0.6-0.4,0.7-0.7c0.7-1.7,1.3-3.5,1.8-5.2c0.2-0.5,0.4-0.8,1-0.7c2.8,0.1,5.7,0,8.5,0
		c0.5,0,0.8,0.1,0.9,0.7c0.5,1.7,1,3.5,1.6,5.3c0.1,0.3,0.5,0.6,0.7,0.7C1028.6,888.4,1031.1,888.4,1033.6,888.4z"/>
	<path fill="#FFFFFF" d="M1018.4,862.2c1.6,4.2,3.3,8.4,4.9,12.8c-3.3,0-6.6,0-9.8,0C1015.2,870.7,1016.8,866.4,1018.4,862.2z"/>
	<polygon fill="#E0B853" points="1004.1,872.2 1013,880.2 1013,875 1034.7,875 1034.7,868.4 1013,868.4 1013,863 	"/>
	<polygon fill="#FFFFFF" points="990.2,838.4 981.3,830.5 981.3,835.5 959.5,835.5 959.5,842.2 981.3,842.2 981.3,847.5 	"/>
</g>
<text transform="matrix(1 0 0 1 905.6005 787.0373)" fill="#A3CCB2" font-family="'Avenir-Roman'" font-size="32.1429">4</text>
<text transform="matrix(1 0 0 1 910.9307 1002.5498)" enable-background="new    "><tspan x="0" y="0" fill="#FFFFFF" font-family="'Avenir-Roman'" font-size="28">Learn to cook</tspan><tspan x="-17.8" y="33.6" fill="#FFFFFF" font-family="'Avenir-Roman'" font-size="28">something new! </tspan></text>
<circle fill="#FFFFFF" stroke="#A3CCB2" stroke-width="8" stroke-miterlimit="10" cx="647.1" cy="466" r="103.1"/>
<g>
	<polyline fill="#D0D8E3" points="666.3,428.7 719.9,428.7 719.9,531.5 578.5,531.5 578.5,428.7 632.1,428.7 	"/>
	<path fill="#6EC098" d="M666.3,438.6h-34.2v-23.7c0-8,7.3-15.3,17.1-15.3s17.1,7.4,17.1,15.3L666.3,438.6L666.3,438.6z"/>
	<line fill="none" stroke="#FFFFFF" stroke-width="2" stroke-miterlimit="10" x1="578.5" y1="453.1" x2="719.9" y2="453.1"/>
	<rect x="673.3" y="475.5" fill="#6EC098" width="32.1" height="6.7"/>
	<rect x="673.3" y="489.6" fill="#6EC098" width="32.1" height="6.7"/>
	<rect x="673.5" y="504.7" fill="#6EC098" width="32.1" height="6.7"/>
	<circle fill="#FFFFFF" cx="648.7" cy="420.6" r="9"/>
	<g>
		<g id="Shirt_2_">
			<g>
				<path fill="#70BE99" d="M649.9,504.1c-1.7-1.7-16.3-9-16.3-9h-18.1c0,0-14.6,7.4-16.3,9c-3.4,3.4-3.6,14.5-3.6,14.5h57.9
					C653.5,518.6,653.3,507.5,649.9,504.1z"/>
			</g>
		</g>
		<g id="Collar_2_">
			<g>
				<polygon fill="#EAEAEA" points="631.7,493.2 617.3,493.2 615.5,495 617.3,504.1 624.5,496.9 631.7,504.1 633.5,495 				"/>
			</g>
		</g>
		<g id="Tie_3_">
			<g>
				<path fill="#E0B853" d="M628.4,500.5c-1.8-1.8-3.6-3.6-3.6-3.6s-1.8,1.8-3.6,3.6c0,1.8,1.8,1.8,1.8,1.8l-1.8,16.3h7.2l-1.8-16.3
					C626.6,502.3,628.4,502.3,628.4,500.5z"/>
			</g>
		</g>
		<g id="Neck_2_">
			<g>
				<path fill="#DBB69B" d="M629.9,487.8h-10.8l-1.8,5.4c0,1,4.4,3.6,5.4,3.6h3.6c1,0,5.4-2.6,5.4-3.6L629.9,487.8z"/>
			</g>
		</g>
		<g id="Head_2_">
			<g>
				<path fill="#F6CCAD" d="M624.5,462.5c-7,0-12.7,3.6-12.7,10.8c0,5.4,1.8,9,3.6,12.7c1.8,3.6,5.5,7.2,9,7.2s7.2-3.6,9-7.2
					c1.8-3.6,3.6-7.2,3.6-12.7C637.2,466.1,631.5,462.5,624.5,462.5z"/>
			</g>
		</g>
		<g id="Hair_2_">
			<g>
				<path fill="#BA8544" d="M624.5,460.7c-4.2,0-9,1.5-9,3.6c-2.7,0-3.6,6-3.6,10.8c0,0.8,0.1,1.7,0.2,2.5c0.5-2.4,1.9-6.2,5.2-6.2
					c3.1,0,1.9,0,7.2,0c2.7,0,7.2-1.3,7.2-3.6c2.3,0,5.4,3.3,5.4,7.2C637.2,468,636,460.7,624.5,460.7z"/>
			</g>
		</g>
	</g>
</g>
<circle fill="#FFFFFF" stroke="#A3CCB2" stroke-width="8" stroke-miterlimit="10" cx="579.5" cy="387.6" r="34.2"/>
<text transform="matrix(1 0 0 1 570.5898 399.4874)" fill="#A3CCB2" font-family="'Avenir-Roman'" font-size="32.1429">1</text>
<text transform="matrix(1 0 0 1 566.7137 615)"><tspan x="0" y="0" fill="#FFFFFF" font-family="'MyriadPro-Regular'" font-size="28">Sign up using </tspan><tspan x="-7.2" y="33.6" fill="#FFFFFF" font-family="'MyriadPro-Regular'" font-size="28">the form below</tspan></text>
<circle fill="#FFFFFF" stroke="#A3CCB2" stroke-width="8" stroke-miterlimit="10" cx="948.7" cy="456.1" r="103.1"/>
<circle fill="#FFFFFF" stroke="#A3CCB2" stroke-width="8" stroke-miterlimit="10" cx="872.4" cy="377.7" r="34.2"/>
<g>
	<g>
		<g id="Shirt_3_">
			<g>
				<path fill="#70BE99" d="M973.3,467.7c-1.7-1.7-16.3-9-16.3-9h-18.1c0,0-14.6,7.4-16.3,9c-3.4,3.4-3.6,14.5-3.6,14.5h57.9
					C976.9,482.2,976.7,471.1,973.3,467.7z"/>
			</g>
		</g>
		<g id="Collar_3_">
			<g>
				<polygon fill="#EAEAEA" points="955.2,456.9 940.7,456.9 938.9,458.7 940.7,467.7 947.9,460.5 955.2,467.7 957,458.7 				"/>
			</g>
		</g>
		<g id="Tie_2_">
			<g>
				<path fill="#E0B853" d="M951.8,464.1c-1.8-1.8-3.6-3.6-3.6-3.6s-1.8,1.8-3.6,3.6c0,1.8,1.8,1.8,1.8,1.8l-1.8,16.3h7.2l-1.8-16.3
					C950,465.9,951.8,465.9,951.8,464.1z"/>
			</g>
		</g>
		<g id="Neck_5_">
			<g>
				<path fill="#DBB69B" d="M953.4,451.5h-10.8l-1.8,5.4c0,1,4.4,3.6,5.4,3.6h3.6c1,0,5.4-2.6,5.4-3.6L953.4,451.5z"/>
			</g>
		</g>
		<g id="Head_6_">
			<g>
				<path fill="#F6CCAD" d="M947.9,426.1c-7,0-12.7,3.6-12.7,10.8c0,5.4,1.8,9,3.6,12.7c1.8,3.6,5.5,7.2,9,7.2s7.2-3.6,9-7.2
					s3.6-7.2,3.6-12.7C960.7,429.7,955,426.1,947.9,426.1z"/>
			</g>
		</g>
		<g id="Hair_5_">
			<g>
				<path fill="#BA8544" d="M947.9,424.3c-4.2,0-9,1.5-9,3.6c-2.7,0-3.6,6-3.6,10.8c0,0.8,0.1,1.7,0.2,2.5c0.5-2.4,1.9-6.2,5.2-6.2
					c3.1,0,1.9,0,7.2,0c2.7,0,7.2-1.3,7.2-3.6c2.3,0,5.4,3.3,5.4,7.2C960.7,431.6,959.5,424.3,947.9,424.3z"/>
			</g>
		</g>
	</g>
	<path fill="#70BE99" d="M929.1,488.8l-28.3,28.3c-3.5,3.5-9.2,3.5-12.7,0s-3.5-9.2,0-12.7l28.3-28.3
		C919.5,481.1,923.9,485.5,929.1,488.8z"/>
	<path opacity="0.25" fill="#FFFFFF" enable-background="new    " d="M921.9,483l-34,34c-3.4-3.5-3.4-9.2,0.1-12.7l28.4-28.4
		C917.9,478.5,919.7,480.9,921.9,483z"/>
	<path fill="#D0D8E3" d="M949.1,418.2c21,0,38,17,38,38c0,21-17,38-38,38c-21.1,0-38-17.2-38-38
		C911.1,435.2,928.1,418.2,949.1,418.2 M949.1,413c-23.8,0-43.3,19.4-43.3,43.3s19.4,43.3,43.3,43.3s43.3-19.4,43.3-43.3
		C992.3,432.4,973,413,949.1,413z"/>
	<path fill="#FFFFFF" d="M949.1,418.2c-21,0-38,17-38,38c0,21,17,38,38,38s38-17,38-38S970.1,418.2,949.1,418.2z M949.1,486.5
		c-16.7,0-30.3-13.5-30.3-30.3c0-16.8,13.5-30.3,30.3-30.3c16.7,0,30.3,13.5,30.3,30.3C979.4,473,965.9,486.5,949.1,486.5z"/>
</g>
<path opacity="0.42" fill="#FFFFFF" enable-background="new    " d="M944.1,423.3c-16.7,0-30.3,13.5-30.3,30.3
	c0,8.3,3.3,15.7,8.7,21.2l42.8-42.8C959.9,426.7,952.4,423.3,944.1,423.3z"/>
<text transform="matrix(1 0 0 1 863.4954 388.7873)" fill="#A3CCB2" font-family="'Avenir-Roman'" font-size="32.1429">2</text>
<text transform="matrix(1 0 0 1 870.3827 604.2997)" enable-background="new    "><tspan x="0" y="0" fill="#FCFCFC" font-family="'Avenir-Roman'" font-size="28">We’ll pair you</tspan><tspan x="0.8" y="33.6" fill="#FCFCFC" font-family="'Avenir-Roman'" font-size="28">with the best </tspan><tspan x="44.1" y="67.2" fill="#FCFCFC" font-family="'Avenir-Roman'" font-size="28">match.</tspan></text>
<circle fill="#FFFFFF" stroke="#A3CCB2" stroke-width="8" stroke-miterlimit="10" cx="650.8" cy="854" r="103.1"/>
<circle fill="#FFFFFF" stroke="#A3CCB2" stroke-width="8" stroke-miterlimit="10" cx="574.5" cy="775.5" r="34.2"/>
<g>
	<g>
		<g>
			<g>
				<path id="SVGID_1_" fill="#75608E" d="M699.4,859.8c0,2.4-5.4,4.4-12.1,4.4c-6.7,0-12.1-1.9-12.1-4.4c0-0.9-0.3-3.7,0.1-4
					c1.9-1.6,7.7-0.3,12-0.3c5.4,0,10.4-1.5,11.9,0.2C699.6,856,699.4,859.2,699.4,859.8z"/>
			</g>
			<g>
				<g>
					<defs>
						<path id="SVGID_2_" d="M699.4,859.8c0,2.4-5.4,4.4-12.1,4.4c-6.7,0-12.1-1.9-12.1-4.4c0-0.9-0.3-3.7,0.1-4
							c1.9-1.6,7.7-0.3,12-0.3c5.4,0,10.4-1.5,11.9,0.2C699.6,856,699.4,859.2,699.4,859.8z"/>
					</defs>
					<clipPath id="SVGID_4_">
						<use xlink:href="#SVGID_2_"  overflow="visible"/>
					</clipPath>
					<g clip-path="url(#SVGID_4_)">
						<rect x="676.2" y="853.5" fill="#75608E" width="0.7" height="11.4"/>
					</g>
				</g>
			</g>
			<g>
				<g>
					<defs>
						<path id="SVGID_6_" d="M699.4,859.8c0,2.4-5.4,4.4-12.1,4.4c-6.7,0-12.1-1.9-12.1-4.4c0-0.9-0.3-3.7,0.1-4
							c1.9-1.6,7.7-0.3,12-0.3c5.4,0,10.4-1.5,11.9,0.2C699.6,856,699.4,859.2,699.4,859.8z"/>
					</defs>
					<clipPath id="SVGID_8_">
						<use xlink:href="#SVGID_6_"  overflow="visible"/>
					</clipPath>
					<g clip-path="url(#SVGID_8_)">
						<rect x="678.2" y="858.2" fill="#75608E" width="3.3" height="8.7"/>
					</g>
				</g>
			</g>
			<g>
				<g>
					<defs>
						<path id="SVGID_9_" d="M699.4,859.8c0,2.4-5.4,4.4-12.1,4.4c-6.7,0-12.1-1.9-12.1-4.4c0-0.9-0.3-3.7,0.1-4
							c1.9-1.6,7.7-0.3,12-0.3c5.4,0,10.4-1.5,11.9,0.2C699.6,856,699.4,859.2,699.4,859.8z"/>
					</defs>
					<clipPath id="SVGID_10_">
						<use xlink:href="#SVGID_9_"  overflow="visible"/>
					</clipPath>
					<g clip-path="url(#SVGID_10_)">
						<rect x="697" y="853.5" fill="#75608E" width="1.3" height="11.4"/>
					</g>
				</g>
			</g>
			<g>
				<g>
					<defs>
						<path id="SVGID_11_" d="M699.4,859.8c0,2.4-5.4,4.4-12.1,4.4c-6.7,0-12.1-1.9-12.1-4.4c0-0.9-0.3-3.7,0.1-4
							c1.9-1.6,7.7-0.3,12-0.3c5.4,0,10.4-1.5,11.9,0.2C699.6,856,699.4,859.2,699.4,859.8z"/>
					</defs>
					<clipPath id="SVGID_12_">
						<use xlink:href="#SVGID_11_"  overflow="visible"/>
					</clipPath>
					<g clip-path="url(#SVGID_12_)">
						<rect x="682.9" y="856.8" fill="#75608E" width="2" height="10"/>
					</g>
				</g>
			</g>
		</g>
		<g>
			<ellipse fill="#70BE99" cx="687.3" cy="856.5" rx="12.1" ry="4.4"/>
		</g>
		<g>
			<g>
				<path id="SVGID_3_" fill="#E0B853" d="M697.8,854.5c0,2.4-5.4,4.4-12.1,4.4c-6.7,0-12.1-1.9-12.1-4.4c0-0.9-0.3-3.7,0.1-4
					c1.9-1.6,7.7-0.3,12-0.3c5.4,0,10.4-1.5,11.9,0.2C698,850.8,697.8,854,697.8,854.5z"/>
			</g>
			<g>
				<g>
					<defs>
						<path id="SVGID_13_" d="M697.8,854.5c0,2.4-5.4,4.4-12.1,4.4c-6.7,0-12.1-1.9-12.1-4.4c0-0.9-0.3-3.7,0.1-4
							c1.9-1.6,7.7-0.3,12-0.3c5.4,0,10.4-1.5,11.9,0.2C698,850.8,697.8,854,697.8,854.5z"/>
					</defs>
					<clipPath id="SVGID_14_">
						<use xlink:href="#SVGID_13_"  overflow="visible"/>
					</clipPath>
					<g clip-path="url(#SVGID_14_)">
						<rect x="674.9" y="848.8" fill="#D0D8E3" width="0.7" height="10"/>
					</g>
				</g>
			</g>
			<g>
				<g>
					<defs>
						<path id="SVGID_15_" d="M697.8,854.5c0,2.4-5.4,4.4-12.1,4.4c-6.7,0-12.1-1.9-12.1-4.4c0-0.9-0.3-3.7,0.1-4
							c1.9-1.6,7.7-0.3,12-0.3c5.4,0,10.4-1.5,11.9,0.2C698,850.8,697.8,854,697.8,854.5z"/>
					</defs>
					<clipPath id="SVGID_16_">
						<use xlink:href="#SVGID_15_"  overflow="visible"/>
					</clipPath>
					<g clip-path="url(#SVGID_16_)">
						<rect x="676.9" y="852.2" fill="#D0D8E3" width="2.7" height="10"/>
					</g>
				</g>
			</g>
			<g>
				<g>
					<defs>
						<path id="SVGID_17_" d="M697.8,854.5c0,2.4-5.4,4.4-12.1,4.4c-6.7,0-12.1-1.9-12.1-4.4c0-0.9-0.3-3.7,0.1-4
							c1.9-1.6,7.7-0.3,12-0.3c5.4,0,10.4-1.5,11.9,0.2C698,850.8,697.8,854,697.8,854.5z"/>
					</defs>
					<clipPath id="SVGID_18_">
						<use xlink:href="#SVGID_17_"  overflow="visible"/>
					</clipPath>
					<g clip-path="url(#SVGID_18_)">
						<rect x="695.6" y="848.8" fill="#D0D8E3" width="0.7" height="10"/>
					</g>
				</g>
			</g>
			<g>
				<g>
					<defs>
						<path id="SVGID_19_" d="M697.8,854.5c0,2.4-5.4,4.4-12.1,4.4c-6.7,0-12.1-1.9-12.1-4.4c0-0.9-0.3-3.7,0.1-4
							c1.9-1.6,7.7-0.3,12-0.3c5.4,0,10.4-1.5,11.9,0.2C698,850.8,697.8,854,697.8,854.5z"/>
					</defs>
					<clipPath id="SVGID_20_">
						<use xlink:href="#SVGID_19_"  overflow="visible"/>
					</clipPath>
					<g clip-path="url(#SVGID_20_)">
						<rect x="681.6" y="851.5" fill="#D0D8E3" width="1.3" height="10"/>
					</g>
				</g>
			</g>
		</g>
		<g>
			<ellipse fill="#70BE99" cx="685.6" cy="851.2" rx="12.1" ry="4.4"/>
		</g>
		<g>
			<g>
				<path id="SVGID_5_" fill="#E0B853" d="M700.3,849.5c0,2.4-5.4,4.4-12.1,4.4c-6.7,0-12.1-1.9-12.1-4.4c0-0.9-0.3-3.7,0.1-4
					c1.9-1.6,7.7-0.3,12-0.3c5.4,0,10.4-1.5,11.9,0.2C700.5,845.8,700.3,849,700.3,849.5z"/>
			</g>
			<g>
				<g>
					<defs>
						<path id="SVGID_21_" d="M700.3,849.5c0,2.4-5.4,4.4-12.1,4.4c-6.7,0-12.1-1.9-12.1-4.4c0-0.9-0.3-3.7,0.1-4
							c1.9-1.6,7.7-0.3,12-0.3c5.4,0,10.4-1.5,11.9,0.2C700.5,845.8,700.3,849,700.3,849.5z"/>
					</defs>
					<clipPath id="SVGID_22_">
						<use xlink:href="#SVGID_21_"  overflow="visible"/>
					</clipPath>
					<g clip-path="url(#SVGID_22_)">
						<rect x="676.9" y="843.7" fill="#D0D8E3" width="0" height="10"/>
					</g>
				</g>
			</g>
			<g>
				<g>
					<defs>
						<path id="SVGID_23_" d="M700.3,849.5c0,2.4-5.4,4.4-12.1,4.4c-6.7,0-12.1-1.9-12.1-4.4c0-0.9-0.3-3.7,0.1-4
							c1.9-1.6,7.7-0.3,12-0.3c5.4,0,10.4-1.5,11.9,0.2C700.5,845.8,700.3,849,700.3,849.5z"/>
					</defs>
					<clipPath id="SVGID_24_">
						<use xlink:href="#SVGID_23_"  overflow="visible"/>
					</clipPath>
					<g clip-path="url(#SVGID_24_)">
						<rect x="678.9" y="846.8" fill="#D0D8E3" width="4" height="10"/>
					</g>
				</g>
			</g>
			<g>
				<g>
					<defs>
						<path id="SVGID_25_" d="M700.3,849.5c0,2.4-5.4,4.4-12.1,4.4c-6.7,0-12.1-1.9-12.1-4.4c0-0.9-0.3-3.7,0.1-4
							c1.9-1.6,7.7-0.3,12-0.3c5.4,0,10.4-1.5,11.9,0.2C700.5,845.8,700.3,849,700.3,849.5z"/>
					</defs>
					<clipPath id="SVGID_26_">
						<use xlink:href="#SVGID_25_"  overflow="visible"/>
					</clipPath>
					<g clip-path="url(#SVGID_26_)">
						<rect x="698.3" y="843.5" fill="#D0D8E3" width="0.7" height="10"/>
					</g>
				</g>
			</g>
			<g>
				<g>
					<defs>
						<path id="SVGID_27_" d="M700.3,849.5c0,2.4-5.4,4.4-12.1,4.4c-6.7,0-12.1-1.9-12.1-4.4c0-0.9-0.3-3.7,0.1-4
							c1.9-1.6,7.7-0.3,12-0.3c5.4,0,10.4-1.5,11.9,0.2C700.5,845.8,700.3,849,700.3,849.5z"/>
					</defs>
					<clipPath id="SVGID_28_">
						<use xlink:href="#SVGID_27_"  overflow="visible"/>
					</clipPath>
					<g clip-path="url(#SVGID_28_)">
						<rect x="684.9" y="846.2" fill="#D0D8E3" width="1.3" height="10.7"/>
					</g>
				</g>
			</g>
		</g>
		<g>
			<ellipse fill="#70BE99" cx="688.2" cy="846.2" rx="12.1" ry="4.4"/>
		</g>
		<g>
			<g>
				<path id="SVGID_7_" fill="#E0B853" d="M698.7,844.8c0,2.4-5.4,4.4-12.1,4.4s-12.1-1.9-12.1-4.4c0-0.9-0.3-3.7,0.1-4
					c1.9-1.6,7.7-0.3,12-0.3c5.4,0,10.4-1.5,11.9,0.2C698.9,841,698.7,844.3,698.7,844.8z"/>
			</g>
			<g>
				<g>
					<defs>
						<path id="SVGID_29_" d="M698.7,844.8c0,2.4-5.4,4.4-12.1,4.4s-12.1-1.9-12.1-4.4c0-0.9-0.3-3.7,0.1-4c1.9-1.6,7.7-0.3,12-0.3
							c5.4,0,10.4-1.5,11.9,0.2C698.9,841,698.7,844.3,698.7,844.8z"/>
					</defs>
					<clipPath id="SVGID_30_">
						<use xlink:href="#SVGID_29_"  overflow="visible"/>
					</clipPath>
					<g clip-path="url(#SVGID_30_)">
						<rect x="675.6" y="838.8" fill="#D0D8E3" width="0.7" height="10"/>
					</g>
				</g>
			</g>
			<g>
				<g>
					<defs>
						<path id="SVGID_31_" d="M698.7,844.8c0,2.4-5.4,4.4-12.1,4.4s-12.1-1.9-12.1-4.4c0-0.9-0.3-3.7,0.1-4c1.9-1.6,7.7-0.3,12-0.3
							c5.4,0,10.4-1.5,11.9,0.2C698.9,841,698.7,844.3,698.7,844.8z"/>
					</defs>
					<clipPath id="SVGID_32_">
						<use xlink:href="#SVGID_31_"  overflow="visible"/>
					</clipPath>
					<g clip-path="url(#SVGID_32_)">
						<rect x="676.9" y="842.2" fill="#D0D8E3" width="4.7" height="10"/>
					</g>
				</g>
			</g>
			<g>
				<g>
					<defs>
						<path id="SVGID_33_" d="M698.7,844.8c0,2.4-5.4,4.4-12.1,4.4s-12.1-1.9-12.1-4.4c0-0.9-0.3-3.7,0.1-4c1.9-1.6,7.7-0.3,12-0.3
							c5.4,0,10.4-1.5,11.9,0.2C698.9,841,698.7,844.3,698.7,844.8z"/>
					</defs>
					<clipPath id="SVGID_34_">
						<use xlink:href="#SVGID_33_"  overflow="visible"/>
					</clipPath>
					<g clip-path="url(#SVGID_34_)">
						<rect x="696.3" y="838.8" fill="#D0D8E3" width="2" height="10"/>
					</g>
				</g>
			</g>
			<g>
				<g>
					<defs>
						<path id="SVGID_35_" d="M698.7,844.8c0,2.4-5.4,4.4-12.1,4.4s-12.1-1.9-12.1-4.4c0-0.9-0.3-3.7,0.1-4c1.9-1.6,7.7-0.3,12-0.3
							c5.4,0,10.4-1.5,11.9,0.2C698.9,841,698.7,844.3,698.7,844.8z"/>
					</defs>
					<clipPath id="SVGID_36_">
						<use xlink:href="#SVGID_35_"  overflow="visible"/>
					</clipPath>
					<g clip-path="url(#SVGID_36_)">
						<rect x="682.9" y="841.5" fill="#D0D8E3" width="2" height="10.7"/>
					</g>
				</g>
			</g>
		</g>
		<g>
			<ellipse fill="#70BE99" cx="686.5" cy="841.5" rx="12.1" ry="4.4"/>
		</g>
	</g>
	<path fill="#FED09E" d="M727.2,862.2c-0.1-2-1.7-3.7-3.8-3.7c-0.3,0-0.7,0.1-0.9,0.1l0,0l-19.2,5v-0.1c1.3-0.7,2.3-2.2,2.3-3.9
		c0-2.4-2-4.4-4.4-4.4c-0.4,0-0.8,0.1-1.1,0.1c-1.6,0.3-14.3,2.5-21.5,2.1c-7.8-0.5-13.6-2.6-25.3,4.5h-4.6l-0.7,15.6
		c0,0,41.6,2.3,47.5,1.1c4.4-0.9,19.3-6.4,27.1-9.8l0,0l0.2-0.1c0.2-0.1,0.5-0.2,0.7-0.3l2.1-0.9c0.7-0.3,1.1-0.6,1.4-0.9
		c0.2-0.1,0.3-0.3,0.3-0.4c0.5-0.5,0.7-1.3,0.7-2.1C727.9,863.5,727.7,862.7,727.2,862.2z"/>
	<g>
		<g>
			<g>
				<rect x="585.4" y="851.5" fill="#70BE99" width="59.3" height="35.9"/>
				<rect x="644.8" y="853.2" fill="#E0B853" width="4.2" height="32.5"/>
				<circle fill="#D0D8E3" cx="640.1" cy="884.7" r="1.3"/>
				<circle fill="#D0D8E3" cx="635" cy="884.7" r="1.3"/>
			</g>
		</g>
	</g>
</g>
<text transform="matrix(1 0 0 1 565.5961 787.2373)" fill="#A3CCB2" font-family="'Avenir-Roman'" font-size="32.1429">3</text>
<text transform="matrix(1 0 0 1 569.0686 1002.7499)" enable-background="new    "><tspan x="0" y="0" fill="#FFFFFF" font-family="'Avenir-Roman'" font-size="28">Agree on an </tspan><tspan x="-12.4" y="33.6" fill="#FFFFFF" font-family="'Avenir-Roman'" font-size="28">hourly fee and </tspan><tspan x="-25.7" y="67.2" fill="#FFFFFF" font-family="'Avenir-Roman'" font-size="28">location to meet </tspan></text>
</svg>
