<?xml version="1.0" encoding="utf-8"?>
<!-- Generator: Adobe Illustrator 18.1.1, SVG Export Plug-In . SVG Version: 6.00 Build 0)  -->
<svg version="1.1" id="Layer_1" xmlns="http://www.w3.org/2000/svg" xmlns:xlink="http://www.w3.org/1999/xlink" x="0px" y="0px"
	 width="472px" height="627px" viewBox="-363 1 472 627" enable-background="new -363 1 472 627" xml:space="preserve">
<circle fill="#FFFFFF" stroke="#A3CCB2" stroke-width="8" stroke-miterlimit="10" cx="-120.3" cy="215.2" r="188.2"/>
<circle fill="#FFFFFF" stroke="#A3CCB2" stroke-width="8" stroke-miterlimit="10" cx="-259.5" cy="71.9" r="62.4"/>
<g>
	<path fill="#70BE99" d="M-169.3,277.6c0-12.2,0-24.1,0-36.3c-10.2,0-20.1,0-30.3,0c0-32.3,0-64.6,0-96.9c34.3,0,68.6,0,103,0
		c0,18.1,0,36.1,0,54.4c26.5,0,52.6,0,78.9,0c0,32.3,0,64.6,0,97.1c-10,0-20.1,0-30.1,0c0,12,0,24.1,0,36.3
		c-0.7-0.5-1.1-0.9-1.6-1.5c-11.1-11.1-22.5-22.3-33.4-33.4c-0.9-0.9-1.8-1.3-3.1-1.3c-11,0-21.7,0-32.5,0c-0.5,0-1.3,0-2,0
		c0-18.3,0-36.3,0-54.6c-2,0-3.8,0-5.8,0c-0.5,0-0.9,0.5-1.3,0.9c-13.5,11.5-26.8,23-40.3,34.5
		C-168.7,277.3-169.1,277.3-169.3,277.6z M-60.3,284c10.2,0,20.3,0,30.1,0c0-24.3,0-48.6,0-72.7c-26.3,0-52.4,0-78.7,0
		c0,24.3,0,48.4,0,72.7c0.7,0,1.3,0,2,0c8.6,0,17.2,0,25.7,0c0.7,0,1.6,0.4,2.2,0.9c2.9,2.6,5.7,5.3,8.6,8c3.1,3.1,6.4,6,9.9,9.3
		C-60.3,295.9-60.3,290.1-60.3,284z"/>
	<path fill="#FFFFFF" d="M-60.3,284c0,6,0,12,0,18.3c-3.5-3.1-6.8-6.2-9.9-9.3c-2.7-2.7-5.7-5.3-8.6-8c-0.5-0.5-1.5-0.9-2.2-0.9
		c-8.6,0-17.2,0-25.7,0c-0.5,0-1.3,0-2,0c0-24.3,0-48.6,0-72.7c26.3,0,52.4,0,78.7,0c0,24.3,0,48.4,0,72.7
		C-39.9,284-50.1,284-60.3,284z M-42.2,278c-0.9-2.7-1.6-5.3-2.4-7.8c-5.3-17.2-10.6-34.1-15.9-51.3c-0.4-1.3-0.9-1.6-2.4-1.6
		c-2.7,0.2-5.7,0-8.6,0c-2.4,0-4.7,0-7.3,0c-6,20.3-12,40.5-18.3,60.6c4.6,0,8.8,0,13.1,0c0.5,0,1.1-0.7,1.3-1.3
		c1.3-3.1,2.4-6.4,3.3-9.5c0.4-0.9,0.7-1.5,1.8-1.3c5.1,0.2,10.4,0,15.5,0c0.9,0,1.5,0.2,1.6,1.3c0.9,3.1,1.8,6.4,2.9,9.7
		c0.2,0.5,0.9,1.1,1.3,1.3C-51.3,278-46.8,278-42.2,278z"/>
	<path fill="#FFFFFF" d="M-69.9,230.2c2.9,7.7,6,15.3,8.9,23.4c-6,0-12,0-17.9,0C-75.8,245.7-72.9,237.9-69.9,230.2z"/>
	<polygon fill="#E0B853" points="-96.1,248.4 -79.8,263 -79.8,253.6 -40.2,253.6 -40.2,241.5 -79.8,241.5 -79.8,231.6 	"/>
	<polygon fill="#FFFFFF" points="-121.3,186.7 -137.7,172.3 -137.7,181.4 -177.5,181.4 -177.5,193.7 -137.7,193.7 -137.7,203.3 	"/>
</g>
<text transform="matrix(1 0 0 1 -275.8624 92.9239)" fill="#A3CCB2" font-family="'Avenir-Roman'" font-size="58.6795">4</text>
<text transform="matrix(1 0 0 1 -266.132 486.3604)" fill="#FFFFFF" font-family="'Avenir-Roman'" font-size="51.1163">Learn to cook</text>
<text transform="matrix(1 0 0 1 -298.6262 547.7)" fill="#FFFFFF" font-family="'Avenir-Roman'" font-size="51.1163">something new! </text>
</svg>
