<?xml version="1.0" encoding="utf-8"?>
<!-- Generator: Adobe Illustrator 18.1.1, SVG Export Plug-In . SVG Version: 6.00 Build 0)  -->
<svg version="1.1" id="Layer_1" xmlns="http://www.w3.org/2000/svg" xmlns:xlink="http://www.w3.org/1999/xlink" x="0px" y="0px"
	 width="472px" height="627px" viewBox="-363 1 472 627" enable-background="new -363 1 472 627" xml:space="preserve">
<circle fill="#FFFFFF" stroke="#A3CCB2" stroke-width="8" stroke-miterlimit="10" cx="-121.8" cy="214.5" r="188.2"/>
<circle fill="#FFFFFF" stroke="#A3CCB2" stroke-width="8" stroke-miterlimit="10" cx="-261.1" cy="71.4" r="62.4"/>
<g>
	<g>
		<g id="Shirt_3_">
			<g>
				<path fill="#70BE99" d="M-76.9,235.7c-3.1-3.1-29.8-16.4-29.8-16.4h-33c0,0-26.7,13.5-29.8,16.4c-6.2,6.2-6.6,26.5-6.6,26.5
					h105.7C-70.3,262.1-70.6,241.9-76.9,235.7z"/>
			</g>
		</g>
		<g id="Collar_3_">
			<g>
				<polygon fill="#EAEAEA" points="-109.9,216.1 -136.4,216.1 -139.7,219.4 -136.4,235.7 -123.2,222.7 -109.9,235.7 -106.6,219.4 
									"/>
			</g>
		</g>
		<g id="Tie_2_">
			<g>
				<path fill="#E0B853" d="M-116.1,229.3c-3.3-3.3-6.6-6.6-6.6-6.6s-3.3,3.3-6.6,6.6c0,3.3,3.3,3.3,3.3,3.3l-3.3,29.8h13.1
					l-3.3-29.8C-119.4,232.6-116.1,232.6-116.1,229.3z"/>
			</g>
		</g>
		<g id="Neck_5_">
			<g>
				<path fill="#DBB69B" d="M-113.2,206.3h-19.7l-3.3,9.9c0,1.8,8,6.6,9.9,6.6h6.6c1.8,0,9.9-4.7,9.9-6.6L-113.2,206.3z"/>
			</g>
		</g>
		<g id="Head_6_">
			<g>
				<path fill="#F6CCAD" d="M-123.2,159.9c-12.8,0-23.2,6.6-23.2,19.7c0,9.9,3.3,16.4,6.6,23.2c3.3,6.6,10,13.1,16.4,13.1
					s13.1-6.6,16.4-13.1c3.3-6.6,6.6-13.1,6.6-23.2C-99.9,166.5-110.3,159.9-123.2,159.9z"/>
			</g>
		</g>
		<g id="Hair_5_">
			<g>
				<path fill="#BA8544" d="M-123.2,156.6c-7.7,0-16.4,2.7-16.4,6.6c-4.9,0-6.6,11-6.6,19.7c0,1.5,0.2,3.1,0.4,4.6
					c0.9-4.4,3.5-11.3,9.5-11.3c5.7,0,3.5,0,13.1,0c4.9,0,13.1-2.4,13.1-6.6c4.2,0,9.9,6,9.9,13.1
					C-99.9,169.9-102,156.6-123.2,156.6z"/>
			</g>
		</g>
	</g>
	<path fill="#70BE99" d="M-157.5,274.2l-51.7,51.6c-6.4,6.4-16.8,6.4-23.2,0s-6.4-16.8,0-23.2l51.7-51.7
		C-175.1,260.1-167,268.2-157.5,274.2z"/>
	<path opacity="0.25" fill="#FFFFFF" enable-background="new    " d="M-170.7,263.6l-62.1,62.1c-6.2-6.4-6.2-16.8,0.2-23.2
		l51.8-51.8C-178,255.4-174.7,259.9-170.7,263.6z"/>
	<path fill="#D0D8E3" d="M-121,145.5c38.3,0,69.4,31,69.4,69.4s-31,69.4-69.4,69.4c-38.5,0-69.4-31.4-69.4-69.4
		C-190.4,176.5-159.4,145.5-121,145.5 M-121,136c-43.4,0-79,35.4-79,79s35.4,79,79,79s79-35.4,79-79C-42.2,171.4-77.4,136-121,136z"
		/>
	<path fill="#FFFFFF" d="M-121,145.5c-38.3,0-69.4,31-69.4,69.4s31,69.4,69.4,69.4s69.4-31,69.4-69.4S-82.7,145.5-121,145.5z
		 M-121,270c-30.5,0-55.3-24.6-55.3-55.3s24.6-55.3,55.3-55.3c30.5,0,55.3,24.6,55.3,55.3S-90.4,270-121,270z"/>
</g>
<path opacity="0.42" fill="#FFFFFF" enable-background="new    " d="M-130.2,154.8c-30.5,0-55.3,24.6-55.3,55.3
	c0,15.2,6,28.7,15.9,38.7l78-78.1C-101.3,161-115,154.8-130.2,154.8z"/>
<text transform="matrix(1 0 0 1 -277.3618 91.671)" fill="#A3CCB2" font-family="'Avenir-Roman'" font-size="58.6795">2</text>
<text transform="matrix(1 0 0 1 -264.7885 485.1066)" fill="#FCFCFC" font-family="'Avenir-Roman'" font-size="51.1163">We’ll pair you</text>
<text transform="matrix(1 0 0 1 -263.3282 546.4465)" fill="#FCFCFC" font-family="'Avenir-Roman'" font-size="51.1163">with the best </text>
<text transform="matrix(1 0 0 1 -184.2802 607.7865)" fill="#FCFCFC" font-family="'Avenir-Roman'" font-size="51.1163">match.</text>
</svg>
