<?xml version="1.0" encoding="utf-8"?>
<!-- Generator: Adobe Illustrator 18.1.1, SVG Export Plug-In . SVG Version: 6.00 Build 0)  -->
<svg version="1.1" id="Layer_1" xmlns="http://www.w3.org/2000/svg" xmlns:xlink="http://www.w3.org/1999/xlink" x="0px" y="0px"
	 width="472px" height="627px" viewBox="-363 1 472 627" enable-background="new -363 1 472 627" xml:space="preserve">
<circle fill="#FFFFFF" stroke="#A3CCB2" stroke-width="8" stroke-miterlimit="10" cx="-120.2" cy="212.2" r="188.2"/>
<circle fill="#FFFFFF" stroke="#A3CCB2" stroke-width="8" stroke-miterlimit="10" cx="-259.5" cy="68.9" r="62.4"/>
<g>
	<g>
		<g>
			<g>
				<path id="SVGID_1_" fill="#75608E" d="M-31.5,222.8c0,4.4-9.9,8-22.1,8s-22.1-3.5-22.1-8c0-1.6-0.5-6.8,0.2-7.3
					c3.5-2.9,14.1-0.5,21.9-0.5c9.9,0,19-2.7,21.7,0.4C-31.2,216.1-31.5,221.7-31.5,222.8z"/>
			</g>
			<g>
				<g>
					<g>
						<g>
							<g>
								<g>
									<g>
										<defs>
											<path id="SVGID_2_" d="M-31.5,222.8c0,4.4-9.9,8-22.1,8s-22.1-3.5-22.1-8c0-1.6-0.5-6.8,0.2-7.3
												c3.5-2.9,14.1-0.5,21.9-0.5c9.9,0,19-2.7,21.7,0.4C-31.2,216.1-31.5,221.7-31.5,222.8z"/>
										</defs>
										<clipPath id="SVGID_4_">
											<use xlink:href="#SVGID_2_"  overflow="visible"/>
										</clipPath>
										<g clip-path="url(#SVGID_4_)">
											<rect x="-74" y="211.5" fill="#75608E" width="1.3" height="20.8"/>
										</g>
									</g>
								</g>
							</g>
						</g>
					</g>
				</g>
			</g>
			<g>
				<g>
					<g>
						<g>
							<g>
								<g>
									<g>
										<defs>
											<path id="SVGID_6_" d="M-31.5,222.8c0,4.4-9.9,8-22.1,8s-22.1-3.5-22.1-8c0-1.6-0.5-6.8,0.2-7.3
												c3.5-2.9,14.1-0.5,21.9-0.5c9.9,0,19-2.7,21.7,0.4C-31.2,216.1-31.5,221.7-31.5,222.8z"/>
										</defs>
										<clipPath id="SVGID_8_">
											<use xlink:href="#SVGID_6_"  overflow="visible"/>
										</clipPath>
										<g clip-path="url(#SVGID_8_)">
											<rect x="-70.2" y="220.1" fill="#75608E" width="6" height="15.9"/>
										</g>
									</g>
								</g>
							</g>
						</g>
					</g>
				</g>
			</g>
			<g>
				<g>
					<g>
						<g>
							<g>
								<g>
									<g>
										<defs>
											<path id="SVGID_9_" d="M-31.5,222.8c0,4.4-9.9,8-22.1,8s-22.1-3.5-22.1-8c0-1.6-0.5-6.8,0.2-7.3
												c3.5-2.9,14.1-0.5,21.9-0.5c9.9,0,19-2.7,21.7,0.4C-31.2,216.1-31.5,221.7-31.5,222.8z"/>
										</defs>
										<clipPath id="SVGID_10_">
											<use xlink:href="#SVGID_9_"  overflow="visible"/>
										</clipPath>
										<g clip-path="url(#SVGID_10_)">
											<rect x="-36.1" y="211.5" fill="#75608E" width="2.4" height="20.8"/>
										</g>
									</g>
								</g>
							</g>
						</g>
					</g>
				</g>
			</g>
			<g>
				<g>
					<g>
						<g>
							<g>
								<g>
									<g>
										<defs>
											<path id="SVGID_11_" d="M-31.5,222.8c0,4.4-9.9,8-22.1,8s-22.1-3.5-22.1-8c0-1.6-0.5-6.8,0.2-7.3
												c3.5-2.9,14.1-0.5,21.9-0.5c9.9,0,19-2.7,21.7,0.4C-31.2,216.1-31.5,221.7-31.5,222.8z"/>
										</defs>
										<clipPath id="SVGID_12_">
											<use xlink:href="#SVGID_11_"  overflow="visible"/>
										</clipPath>
										<g clip-path="url(#SVGID_12_)">
											<rect x="-61.6" y="217.5" fill="#75608E" width="3.7" height="18.3"/>
										</g>
									</g>
								</g>
							</g>
						</g>
					</g>
				</g>
			</g>
		</g>
		<g>
			<ellipse fill="#70BE99" cx="-53.6" cy="216.8" rx="22.1" ry="8"/>
		</g>
		<g>
			<g>
				<path id="SVGID_3_" fill="#E0B853" d="M-34.5,212.9c0,4.4-9.9,8-22.1,8s-22.1-3.5-22.1-8c0-1.6-0.5-6.8,0.2-7.3
					c3.5-2.9,14.1-0.5,21.9-0.5c9.9,0,19-2.7,21.7,0.4C-34.1,206.4-34.5,212-34.5,212.9z"/>
			</g>
			<g>
				<g>
					<g>
						<g>
							<g>
								<g>
									<g>
										<defs>
											<path id="SVGID_13_" d="M-34.5,212.9c0,4.4-9.9,8-22.1,8s-22.1-3.5-22.1-8c0-1.6-0.5-6.8,0.2-7.3
												c3.5-2.9,14.1-0.5,21.9-0.5c9.9,0,19-2.7,21.7,0.4C-34.1,206.4-34.5,212-34.5,212.9z"/>
										</defs>
										<clipPath id="SVGID_14_">
											<use xlink:href="#SVGID_13_"  overflow="visible"/>
										</clipPath>
										<g clip-path="url(#SVGID_14_)">
											<rect x="-76.2" y="202.9" fill="#D0D8E3" width="1.3" height="18.3"/>
										</g>
									</g>
								</g>
							</g>
						</g>
					</g>
				</g>
			</g>
			<g>
				<g>
					<g>
						<g>
							<g>
								<g>
									<g>
										<defs>
											<path id="SVGID_15_" d="M-34.5,212.9c0,4.4-9.9,8-22.1,8s-22.1-3.5-22.1-8c0-1.6-0.5-6.8,0.2-7.3
												c3.5-2.9,14.1-0.5,21.9-0.5c9.9,0,19-2.7,21.7,0.4C-34.1,206.4-34.5,212-34.5,212.9z"/>
										</defs>
										<clipPath id="SVGID_16_">
											<use xlink:href="#SVGID_15_"  overflow="visible"/>
										</clipPath>
										<g clip-path="url(#SVGID_16_)">
											<rect x="-72.6" y="208.8" fill="#D0D8E3" width="4.9" height="18.3"/>
										</g>
									</g>
								</g>
							</g>
						</g>
					</g>
				</g>
			</g>
			<g>
				<g>
					<g>
						<g>
							<g>
								<g>
									<g>
										<defs>
											<path id="SVGID_17_" d="M-34.5,212.9c0,4.4-9.9,8-22.1,8s-22.1-3.5-22.1-8c0-1.6-0.5-6.8,0.2-7.3
												c3.5-2.9,14.1-0.5,21.9-0.5c9.9,0,19-2.7,21.7,0.4C-34.1,206.4-34.5,212-34.5,212.9z"/>
										</defs>
										<clipPath id="SVGID_18_">
											<use xlink:href="#SVGID_17_"  overflow="visible"/>
										</clipPath>
										<g clip-path="url(#SVGID_18_)">
											<rect x="-38.5" y="202.9" fill="#D0D8E3" width="1.3" height="18.3"/>
										</g>
									</g>
								</g>
							</g>
						</g>
					</g>
				</g>
			</g>
			<g>
				<g>
					<g>
						<g>
							<g>
								<g>
									<g>
										<defs>
											<path id="SVGID_19_" d="M-34.5,212.9c0,4.4-9.9,8-22.1,8s-22.1-3.5-22.1-8c0-1.6-0.5-6.8,0.2-7.3
												c3.5-2.9,14.1-0.5,21.9-0.5c9.9,0,19-2.7,21.7,0.4C-34.1,206.4-34.5,212-34.5,212.9z"/>
										</defs>
										<clipPath id="SVGID_20_">
											<use xlink:href="#SVGID_19_"  overflow="visible"/>
										</clipPath>
										<g clip-path="url(#SVGID_20_)">
											<rect x="-64.1" y="207.8" fill="#D0D8E3" width="2.4" height="18.3"/>
										</g>
									</g>
								</g>
							</g>
						</g>
					</g>
				</g>
			</g>
		</g>
		<g>
			<ellipse fill="#70BE99" cx="-56.9" cy="207.1" rx="22.1" ry="8"/>
		</g>
		<g>
			<g>
				<path id="SVGID_5_" fill="#E0B853" d="M-30,204.2c0,4.4-9.9,8-22.1,8s-22.1-3.5-22.1-8c0-1.6-0.5-6.8,0.2-7.3
					c3.5-2.9,14.1-0.5,21.9-0.5c9.9,0,19-2.7,21.7,0.4C-29.5,197.4-30,203.3-30,204.2z"/>
			</g>
			<g>
				<g>
					<g>
						<g>
							<g>
								<g>
									<g>
										<defs>
											<path id="SVGID_21_" d="M-30,204.2c0,4.4-9.9,8-22.1,8s-22.1-3.5-22.1-8c0-1.6-0.5-6.8,0.2-7.3
												c3.5-2.9,14.1-0.5,21.9-0.5c9.9,0,19-2.7,21.7,0.4C-29.5,197.4-30,203.3-30,204.2z"/>
										</defs>
										<clipPath id="SVGID_22_">
											<use xlink:href="#SVGID_21_"  overflow="visible"/>
										</clipPath>
										<g clip-path="url(#SVGID_22_)">
											<rect x="-72.6" y="193.4" fill="#D0D8E3" width="0" height="18.3"/>
										</g>
									</g>
								</g>
							</g>
						</g>
					</g>
				</g>
			</g>
			<g>
				<g>
					<g>
						<g>
							<g>
								<g>
									<g>
										<defs>
											<path id="SVGID_23_" d="M-30,204.2c0,4.4-9.9,8-22.1,8s-22.1-3.5-22.1-8c0-1.6-0.5-6.8,0.2-7.3
												c3.5-2.9,14.1-0.5,21.9-0.5c9.9,0,19-2.7,21.7,0.4C-29.5,197.4-30,203.3-30,204.2z"/>
										</defs>
										<clipPath id="SVGID_24_">
											<use xlink:href="#SVGID_23_"  overflow="visible"/>
										</clipPath>
										<g clip-path="url(#SVGID_24_)">
											<rect x="-69" y="199.1" fill="#D0D8E3" width="7.3" height="18.3"/>
										</g>
									</g>
								</g>
							</g>
						</g>
					</g>
				</g>
			</g>
			<g>
				<g>
					<g>
						<g>
							<g>
								<g>
									<g>
										<defs>
											<path id="SVGID_25_" d="M-30,204.2c0,4.4-9.9,8-22.1,8s-22.1-3.5-22.1-8c0-1.6-0.5-6.8,0.2-7.3
												c3.5-2.9,14.1-0.5,21.9-0.5c9.9,0,19-2.7,21.7,0.4C-29.5,197.4-30,203.3-30,204.2z"/>
										</defs>
										<clipPath id="SVGID_26_">
											<use xlink:href="#SVGID_25_"  overflow="visible"/>
										</clipPath>
										<g clip-path="url(#SVGID_26_)">
											<rect x="-33.5" y="193" fill="#D0D8E3" width="1.3" height="18.3"/>
										</g>
									</g>
								</g>
							</g>
						</g>
					</g>
				</g>
			</g>
			<g>
				<g>
					<g>
						<g>
							<g>
								<g>
									<g>
										<defs>
											<path id="SVGID_27_" d="M-30,204.2c0,4.4-9.9,8-22.1,8s-22.1-3.5-22.1-8c0-1.6-0.5-6.8,0.2-7.3
												c3.5-2.9,14.1-0.5,21.9-0.5c9.9,0,19-2.7,21.7,0.4C-29.5,197.4-30,203.3-30,204.2z"/>
										</defs>
										<clipPath id="SVGID_28_">
											<use xlink:href="#SVGID_27_"  overflow="visible"/>
										</clipPath>
										<g clip-path="url(#SVGID_28_)">
											<rect x="-58.1" y="198" fill="#D0D8E3" width="2.4" height="19.5"/>
										</g>
									</g>
								</g>
							</g>
						</g>
					</g>
				</g>
			</g>
		</g>
		<g>
			<ellipse fill="#70BE99" cx="-52" cy="198" rx="22.1" ry="8"/>
		</g>
		<g>
			<g>
				<path id="SVGID_7_" fill="#E0B853" d="M-32.8,195.6c0,4.4-9.9,8-22.1,8s-22.1-3.5-22.1-8c0-1.6-0.5-6.8,0.2-7.3
					c3.5-2.9,14.1-0.5,21.9-0.5c9.9,0,19-2.7,21.7,0.4C-32.5,188.7-32.8,194.7-32.8,195.6z"/>
			</g>
			<g>
				<g>
					<g>
						<g>
							<g>
								<g>
									<g>
										<defs>
											<path id="SVGID_29_" d="M-32.8,195.6c0,4.4-9.9,8-22.1,8s-22.1-3.5-22.1-8c0-1.6-0.5-6.8,0.2-7.3
												c3.5-2.9,14.1-0.5,21.9-0.5c9.9,0,19-2.7,21.7,0.4C-32.5,188.7-32.8,194.7-32.8,195.6z"/>
										</defs>
										<clipPath id="SVGID_30_">
											<use xlink:href="#SVGID_29_"  overflow="visible"/>
										</clipPath>
										<g clip-path="url(#SVGID_30_)">
											<rect x="-75" y="184.5" fill="#D0D8E3" width="1.3" height="18.3"/>
										</g>
									</g>
								</g>
							</g>
						</g>
					</g>
				</g>
			</g>
			<g>
				<g>
					<g>
						<g>
							<g>
								<g>
									<g>
										<defs>
											<path id="SVGID_31_" d="M-32.8,195.6c0,4.4-9.9,8-22.1,8s-22.1-3.5-22.1-8c0-1.6-0.5-6.8,0.2-7.3
												c3.5-2.9,14.1-0.5,21.9-0.5c9.9,0,19-2.7,21.7,0.4C-32.5,188.7-32.8,194.7-32.8,195.6z"/>
										</defs>
										<clipPath id="SVGID_32_">
											<use xlink:href="#SVGID_31_"  overflow="visible"/>
										</clipPath>
										<g clip-path="url(#SVGID_32_)">
											<rect x="-72.7" y="190.7" fill="#D0D8E3" width="8.6" height="18.3"/>
										</g>
									</g>
								</g>
							</g>
						</g>
					</g>
				</g>
			</g>
			<g>
				<g>
					<g>
						<g>
							<g>
								<g>
									<g>
										<defs>
											<path id="SVGID_33_" d="M-32.8,195.6c0,4.4-9.9,8-22.1,8s-22.1-3.5-22.1-8c0-1.6-0.5-6.8,0.2-7.3
												c3.5-2.9,14.1-0.5,21.9-0.5c9.9,0,19-2.7,21.7,0.4C-32.5,188.7-32.8,194.7-32.8,195.6z"/>
										</defs>
										<clipPath id="SVGID_34_">
											<use xlink:href="#SVGID_33_"  overflow="visible"/>
										</clipPath>
										<g clip-path="url(#SVGID_34_)">
											<rect x="-37.2" y="184.5" fill="#D0D8E3" width="3.7" height="18.3"/>
										</g>
									</g>
								</g>
							</g>
						</g>
					</g>
				</g>
			</g>
			<g>
				<g>
					<g>
						<g>
							<g>
								<g>
									<g>
										<defs>
											<path id="SVGID_35_" d="M-32.8,195.6c0,4.4-9.9,8-22.1,8s-22.1-3.5-22.1-8c0-1.6-0.5-6.8,0.2-7.3
												c3.5-2.9,14.1-0.5,21.9-0.5c9.9,0,19-2.7,21.7,0.4C-32.5,188.7-32.8,194.7-32.8,195.6z"/>
										</defs>
										<clipPath id="SVGID_36_">
											<use xlink:href="#SVGID_35_"  overflow="visible"/>
										</clipPath>
										<g clip-path="url(#SVGID_36_)">
											<rect x="-61.6" y="189.2" fill="#D0D8E3" width="3.7" height="19.5"/>
										</g>
									</g>
								</g>
							</g>
						</g>
					</g>
				</g>
			</g>
		</g>
		<g>
			<ellipse fill="#70BE99" cx="-55.1" cy="189.4" rx="22.1" ry="8"/>
		</g>
	</g>
	<path fill="#FED09E" d="M19.2,227.2c-0.2-3.7-3.1-6.8-6.9-6.8c-0.5,0-1.3,0.2-1.6,0.2l0,0l-35.1,9.1v-0.2c2.4-1.3,4.2-4,4.2-7.1
		c0-4.4-3.7-8-8-8c-0.7,0-1.5,0.2-2,0.2c-2.9,0.5-26.1,4.6-39.2,3.8c-14.2-0.9-24.8-4.7-46.2,8.2h-8.4l-1.3,28.5
		c0,0,75.9,4.2,86.7,2c8-1.6,35.2-11.7,49.5-17.9l0,0l0.4-0.2c0.4-0.2,0.9-0.4,1.3-0.5l3.8-1.6c1.3-0.5,2-1.1,2.6-1.6
		c0.4-0.2,0.5-0.5,0.5-0.7c0.9-0.9,1.3-2.4,1.3-3.8C20.5,229.4,20,228.1,19.2,227.2z"/>
	<g>
		<g>
			<g>
				<rect x="-239.6" y="207.7" fill="#70BE99" width="108.3" height="65.5"/>
				<rect x="-131.2" y="210.8" fill="#E0B853" width="7.7" height="59.3"/>
				<circle fill="#D0D8E3" cx="-139.8" cy="268.1" r="2.4"/>
				<circle fill="#D0D8E3" cx="-149.1" cy="268.1" r="2.4"/>
			</g>
		</g>
	</g>
</g>
<text transform="matrix(1 0 0 1 -275.8921 90.3376)" fill="#A3CCB2" font-family="'Avenir-Roman'" font-size="58.6795">3</text>
<text transform="matrix(1 0 0 1 -269.552 483.7727)" fill="#FFFFFF" font-family="'Avenir-Roman'" font-size="51.1163">Agree on an </text>
<text transform="matrix(1 0 0 1 -292.1894 545.1127)" fill="#FFFFFF" font-family="'Avenir-Roman'" font-size="51.1163">hourly fee and </text>
<text transform="matrix(1 0 0 1 -316.4696 606.4526)" fill="#FFFFFF" font-family="'Avenir-Roman'" font-size="51.1163">location to meet </text>
</svg>
