<?xml version="1.0" encoding="utf-8"?>
<!-- Generator: Adobe Illustrator 18.1.1, SVG Export Plug-In . SVG Version: 6.00 Build 0)  -->
<svg version="1.1" id="Layer_1" xmlns="http://www.w3.org/2000/svg" xmlns:xlink="http://www.w3.org/1999/xlink" x="0px" y="0px"
	 width="427px" height="627px" viewBox="-386 1 427 627" enable-background="new -386 1 427 627" xml:space="preserve">
<circle fill="#FFFFFF" stroke="#A3CCB2" stroke-width="8" stroke-miterlimit="10" cx="-172.5" cy="215.1" r="188.2"/>
<g>
	<polyline fill="#D0D8E3" points="-137.4,147 -39.6,147 -39.6,334.7 -297.7,334.7 -297.7,147 -199.9,147 	"/>
	<path fill="#6EC098" d="M-137.4,165.1h-62.4v-43.3c0-14.6,13.3-27.9,31.2-27.9s31.2,13.5,31.2,27.9V165.1L-137.4,165.1z"/>
	<line fill="none" stroke="#FFFFFF" stroke-width="2" stroke-miterlimit="10" x1="-297.7" y1="191.6" x2="-39.6" y2="191.6"/>
	<rect x="-124.7" y="232.5" fill="#6EC098" width="58.6" height="12.2"/>
	<rect x="-124.7" y="258.2" fill="#6EC098" width="58.6" height="12.2"/>
	<rect x="-124.3" y="285.8" fill="#6EC098" width="58.6" height="12.2"/>
	<circle fill="#FFFFFF" cx="-169.6" cy="132.2" r="16.4"/>
	<g>
		<g id="Shirt_2_">
			<g>
				<path fill="#70BE99" d="M-167.4,284.7c-3.1-3.1-29.8-16.4-29.8-16.4h-33c0,0-26.7,13.5-29.8,16.4c-6.2,6.2-6.6,26.5-6.6,26.5
					h105.7C-160.8,311.1-161.2,290.9-167.4,284.7z"/>
			</g>
		</g>
		<g id="Collar_2_">
			<g>
				<polygon fill="#EAEAEA" points="-200.6,264.8 -226.9,264.8 -230.2,268.1 -226.9,284.7 -213.7,271.5 -200.6,284.7 -197.3,268.1 
									"/>
			</g>
		</g>
		<g id="Tie_3_">
			<g>
				<path fill="#E0B853" d="M-206.6,278.1c-3.3-3.3-6.6-6.6-6.6-6.6s-3.3,3.3-6.6,6.6c0,3.3,3.3,3.3,3.3,3.3l-3.3,29.8h13.1
					l-3.3-29.8C-209.9,281.4-206.6,281.4-206.6,278.1z"/>
			</g>
		</g>
		<g id="Neck_2_">
			<g>
				<path fill="#DBB69B" d="M-203.9,254.9h-19.7l-3.3,9.9c0,1.8,8,6.6,9.9,6.6h6.6c1.8,0,9.9-4.7,9.9-6.6L-203.9,254.9z"/>
			</g>
		</g>
		<g id="Head_2_">
			<g>
				<path fill="#F6CCAD" d="M-213.7,208.7c-12.8,0-23.2,6.6-23.2,19.7c0,9.9,3.3,16.4,6.6,23.2c3.3,6.6,10,13.1,16.4,13.1
					s13.1-6.6,16.4-13.1c3.3-6.6,6.6-13.1,6.6-23.2C-190.6,215.3-201,208.7-213.7,208.7z"/>
			</g>
		</g>
		<g id="Hair_2_">
			<g>
				<path fill="#BA8544" d="M-213.7,205.4c-7.7,0-16.4,2.7-16.4,6.6c-4.9,0-6.6,11-6.6,19.7c0,1.5,0.2,3.1,0.4,4.6
					c0.9-4.4,3.5-11.3,9.5-11.3c5.7,0,3.5,0,13.1,0c4.9,0,13.1-2.4,13.1-6.6c4.2,0,9.9,6,9.9,13.1
					C-190.6,218.8-192.8,205.4-213.7,205.4z"/>
			</g>
		</g>
	</g>
</g>
<circle fill="#FFFFFF" stroke="#A3CCB2" stroke-width="8" stroke-miterlimit="10" cx="-295.9" cy="72" r="62.4"/>
<text transform="matrix(1 0 0 1 -312.2108 93.7242)" fill="#A3CCB2" font-family="'Avenir-Roman'" font-size="58.6795">1</text>
<text transform="matrix(1 0 0 1 -332.431 487.16)" fill="#FFFFFF" font-family="'Avenir-Roman'" font-size="51.1163">Sign up using </text>
<text transform="matrix(1 0 0 1 -344.4307 548.5002)" fill="#FFFFFF" font-family="'Avenir-Roman'" font-size="51.1163">the form below</text>
</svg>
