<?xml version="1.0" encoding="utf-8"?>
<!-- Generator: Adobe Illustrator 18.1.1, SVG Export Plug-In . SVG Version: 6.00 Build 0)  -->
<svg version="1.1" id="Layer_1" xmlns="http://www.w3.org/2000/svg" xmlns:xlink="http://www.w3.org/1999/xlink" x="0px" y="0px"
	 viewBox="0 0 1200 628" enable-background="new 0 0 1200 628" xml:space="preserve">
<rect x="52.7" y="260" fill="none" width="145.2" height="40.8"/>
<text transform="matrix(1 0 0 1 36.3502 274.1333)" fill="#FFFFFF" font-family="'Avenir-Roman'" font-size="28">Sign up using </text>
<text transform="matrix(1 0 0 1 25.9069 296.6335)" fill="#FFFFFF" font-family="'Avenir-Roman'" font-size="28">the form below.</text>
<g>
	<circle fill="#FFFFFF" stroke="#A3CCB2" stroke-width="8" stroke-miterlimit="10" cx="125.3" cy="120.9" r="103.1"/>
	<g>
		<polyline fill="#D1D8E3" points="144.5,83.6 198.1,83.6 198.1,186.4 56.7,186.4 56.7,83.6 110.3,83.6 		"/>
		<path fill="#6FC099" d="M144.5,93.5h-34.2V69.8c0-8,7.3-15.3,17.1-15.3s17.1,7.4,17.1,15.3L144.5,93.5L144.5,93.5z"/>
		<line fill="none" stroke="#FFFFFF" stroke-width="2" stroke-miterlimit="10" x1="56.7" y1="108" x2="198.1" y2="108"/>
		<rect x="151.5" y="130.4" fill="#6FC099" width="32.1" height="6.7"/>
		<rect x="151.5" y="144.5" fill="#6FC099" width="32.1" height="6.7"/>
		<rect x="151.7" y="159.6" fill="#6FC099" width="32.1" height="6.7"/>
		<circle fill="#FFFFFF" cx="126.9" cy="75.5" r="9"/>
		<g>
			<g id="Shirt_2_">
				<g>
					<path fill="#70BE9A" d="M128.1,159c-1.7-1.7-16.3-9-16.3-9H93.7c0,0-14.6,7.4-16.3,9c-3.4,3.4-3.6,14.5-3.6,14.5h57.9
						C131.7,173.5,131.5,162.4,128.1,159z"/>
				</g>
			</g>
			<g id="Collar_2_">
				<g>
					<polygon fill="#EAEAEA" points="109.9,148.1 95.5,148.1 93.7,149.9 95.5,159 102.7,151.8 109.9,159 111.7,149.9 					"/>
				</g>
			</g>
			<g id="Tie_3_">
				<g>
					<path fill="#E0B854" d="M106.6,155.4c-1.8-1.8-3.6-3.6-3.6-3.6s-1.8,1.8-3.6,3.6c0,1.8,1.8,1.8,1.8,1.8l-1.8,16.3h7.2
						l-1.8-16.3C104.8,157.2,106.6,157.2,106.6,155.4z"/>
				</g>
			</g>
			<g id="Neck_2_">
				<g>
					<path fill="#DBB69C" d="M108.1,142.7H97.3l-1.8,5.4c0,1,4.4,3.6,5.4,3.6h3.6c1,0,5.4-2.6,5.4-3.6L108.1,142.7z"/>
				</g>
			</g>
			<g id="Head_2_">
				<g>
					<path fill="#F6CCAE" d="M102.7,117.4c-7,0-12.7,3.6-12.7,10.8c0,5.4,1.8,9,3.6,12.7c1.8,3.6,5.5,7.2,9,7.2s7.2-3.6,9-7.2
						c1.8-3.6,3.6-7.2,3.6-12.7C115.4,121,109.7,117.4,102.7,117.4z"/>
				</g>
			</g>
			<g id="Hair_2_">
				<g>
					<path fill="#BA8544" d="M102.7,115.6c-4.2,0-9,1.5-9,3.6c-2.7,0-3.6,6-3.6,10.8c0,0.8,0.1,1.7,0.2,2.5c0.5-2.4,1.9-6.2,5.2-6.2
						c3.1,0,1.9,0,7.2,0c2.7,0,7.2-1.3,7.2-3.6c2.3,0,5.4,3.3,5.4,7.2C115.4,122.9,114.2,115.6,102.7,115.6z"/>
				</g>
			</g>
		</g>
	</g>
	<circle fill="#FFFFFF" stroke="#A3CCB2" stroke-width="8" stroke-miterlimit="10" cx="57.7" cy="42.5" r="34.2"/>
	<text transform="matrix(1 0 0 1 48.7814 54.3875)" fill="#A3CCB2" font-family="'Avenir-Roman'" font-size="32.1429">1</text>
</g>
</svg>
